# xmcd
#
# Track frame offsets: 
#        150
#        11580
#        29487
#        47025
#        65037
#        78580
#        91482
#        108772
#        132752
#        157115
#        173375
#        191677
#
# Disc length: 2776 seconds
#
# Revision: 0
# Processed by: cddbd v1.5.2PL0 Copyright (c) Steve Scherf et al.
# Submitted via: ExactAudioCopy v0.95a4
#
DISCID=980ad60c
DTITLE=Edith Wilson - He may be your man . . . but he comes to see me 
DTITLE=sometimes!
DYEAR=1900
DGENRE=Blues
TTITLE0=Mistreatin' Blues
TTITLE1=Hesitating Blues
TTITLE2=He May Be Your Man
TTITLE3=Easin' Away From Me
TTITLE4=That Same Dog
TTITLE5=Hey! Hey! Boogie
TTITLE6=Poppa-Mama Blues
TTITLE7=My Handy Man Ain't Handy Anymore
TTITLE8=Lonesome
TTITLE9=Twiddlin'
TTITLE10=Slow Creepin' Blues
TTITLE11=Put A Little Love In Everything You Do
EXTD=
EXTT0=
EXTT1=
EXTT2=
EXTT3=
EXTT4=
EXTT5=
EXTT6=
EXTT7=
EXTT8=
EXTT9=
EXTT10=
EXTT11=
PLAYORDER=
